<svg width="767px" height="390px"
 viewBox="0.00 0.00 766.61 390.00" xmlns="http://www.w3.org/2000/svg" xmlns:xlink="http://www.w3.org/1999/xlink">
<g id="graph0" class="graph" transform="scale(1.0 1.0) rotate(0.0) translate(4.0 386.0)">
<title>G</title>
<polygon fill="white" stroke="transparent" points="-4,4 -4,-386 762.61,-386 762.61,4 -4,4"/>
<!-- eee2e20db&#45;c982&#45;4edb&#45;b9a5&#45;f8538ffbacf9&#45;&gt;e12ab8dd2&#45;e32f&#45;4388&#45;b4ce&#45;752ceb486a64 -->
<g id="e7a464650&#45;dd98&#45;4b2f&#45;904e&#45;f45292e27a3d" class="edge">
<title>eee2e20db&#45;c982&#45;4edb&#45;b9a5&#45;f8538ffbacf9&#45;&gt;e12ab8dd2&#45;e32f&#45;4388&#45;b4ce&#45;752ceb486a64</title>
<path fill="none" stroke="black" d="M48.02,-191C55.84,-191 64.76,-191 73.33,-191"/>
<polygon fill="black" stroke="black" points="73.54,-194.5 83.54,-191 73.54,-187.5 73.54,-194.5"/>
</g>
<!-- ed78ad127&#45;d19e&#45;42a0&#45;a4d3&#45;2907d61598f6&#45;&gt;e0836048d&#45;1f62&#45;4c73&#45;9ce0&#45;e9510a4bd8e5 -->
<g id="e5703ba2a&#45;e6e3&#45;43c2&#45;9b3b&#45;56d03f93564a" class="edge">
<title>ed78ad127&#45;d19e&#45;42a0&#45;a4d3&#45;2907d61598f6&#45;&gt;e0836048d&#45;1f62&#45;4c73&#45;9ce0&#45;e9510a4bd8e5</title>
<path fill="none" stroke="black" d="M201.68,-364C201.68,-364 229,-359.03 253.19,-354.63"/>
<polygon fill="black" stroke="black" points="254.07,-358.03 263.28,-352.8 252.81,-351.15 254.07,-358.03"/>
</g>
<!-- e7eeb11a9&#45;a0a8&#45;48ab&#45;9df5&#45;4628d614e371&#45;&gt;e23f3ba8c&#45;d1fd&#45;4122&#45;bb13&#45;7ca37c4ed494 -->
<g id="e3b0e2070&#45;f903&#45;4f77&#45;ba92&#45;ba060aeee3bd" class="edge">
<title>e7eeb11a9&#45;a0a8&#45;48ab&#45;9df5&#45;4628d614e371&#45;&gt;e23f3ba8c&#45;d1fd&#45;4122&#45;bb13&#45;7ca37c4ed494</title>
<path fill="none" stroke="black" d="M667.38,-264.94C680.53,-249.82 699.42,-228.09 713.92,-211.42"/>
<polygon fill="black" stroke="black" points="716.72,-213.53 720.64,-203.69 711.43,-208.94 716.72,-213.53"/>
</g>
<!-- e7d65e29f&#45;eb26&#45;4cce&#45;9d99&#45;e997f951a07f&#45;&gt;e23f3ba8c&#45;d1fd&#45;4122&#45;bb13&#45;7ca37c4ed494 -->
<g id="ec52e0149&#45;9c8f&#45;4ac5&#45;85dd&#45;d5f120c35959" class="edge">
<title>e7d65e29f&#45;eb26&#45;4cce&#45;9d99&#45;e997f951a07f&#45;&gt;e23f3ba8c&#45;d1fd&#45;4122&#45;bb13&#45;7ca37c4ed494</title>
<path fill="none" stroke="black" d="M588.03,-187C618.99,-187 670.33,-187 703.44,-187"/>
<polygon fill="black" stroke="black" points="703.5,-190.5 713.5,-187 703.5,-183.5 703.5,-190.5"/>
</g>
<!-- e00349e27&#45;6434&#45;4e23&#45;8ca0&#45;7323c694a785&#45;&gt;e316a716f&#45;1130&#45;4574&#45;b8d0&#45;1ea78ab294e5 -->
<g id="efe593a1a&#45;bca7&#45;4910&#45;b64a&#45;f7c06e4840db" class="edge">
<title>e00349e27&#45;6434&#45;4e23&#45;8ca0&#45;7323c694a785&#45;&gt;e316a716f&#45;1130&#45;4574&#45;b8d0&#45;1ea78ab294e5</title>
<path fill="none" stroke="black" d="M291.68,-256C291.68,-256 319,-258.48 343.19,-260.68"/>
<polygon fill="black" stroke="black" points="343,-264.18 353.28,-261.6 343.64,-257.21 343,-264.18"/>
</g>
<!-- e7f57190d&#45;3f55&#45;42b9&#45;8954&#45;6b04268c506e&#45;&gt;e23f3ba8c&#45;d1fd&#45;4122&#45;bb13&#45;7ca37c4ed494 -->
<g id="e2a3b3b5c&#45;bacc&#45;4f3d&#45;968b&#45;bad11aa704a4" class="edge">
<title>e7f57190d&#45;3f55&#45;42b9&#45;8954&#45;6b04268c506e&#45;&gt;e23f3ba8c&#45;d1fd&#45;4122&#45;bb13&#45;7ca37c4ed494</title>
<path fill="none" stroke="black" d="M664.91,-90.22C678.73,-109.26 700.53,-139.3 716.18,-160.86"/>
<polygon fill="black" stroke="black" points="713.55,-163.2 722.26,-169.24 719.22,-159.09 713.55,-163.2"/>
</g>
<!-- e0836048d&#45;1f62&#45;4c73&#45;9ce0&#45;e9510a4bd8e5&#45;&gt;e7eeb11a9&#45;a0a8&#45;48ab&#45;9df5&#45;4628d614e371 -->
<g id="ece0b27cd&#45;d353&#45;4c0c&#45;aafd&#45;2e69472a1ab3" class="edge">
<title>e0836048d&#45;1f62&#45;4c73&#45;9ce0&#45;e9510a4bd8e5&#45;&gt;e7eeb11a9&#45;a0a8&#45;48ab&#45;9df5&#45;4628d614e371</title>
<path fill="none" stroke="black" d="M291.68,-348C291.68,-348 523.09,-305.99 613.81,-289.51"/>
<polygon fill="black" stroke="black" points="614.43,-292.96 623.65,-287.73 613.18,-286.07 614.43,-292.96"/>
</g>
<!-- e316a716f&#45;1130&#45;4574&#45;b8d0&#45;1ea78ab294e5&#45;&gt;ed6fd1464&#45;a05b&#45;4a10&#45;8ae5&#45;cbc90213a4cf -->
<g id="e38403b38&#45;f6e8&#45;49bd&#45;b193&#45;f8ec27be748e" class="edge">
<title>e316a716f&#45;1130&#45;4574&#45;b8d0&#45;1ea78ab294e5&#45;&gt;ed6fd1464&#45;a05b&#45;4a10&#45;8ae5&#45;cbc90213a4cf</title>
<path fill="none" stroke="black" d="M381.68,-264C381.68,-264 415.46,-234.45 441.16,-211.96"/>
<polygon fill="black" stroke="black" points="443.61,-214.47 448.83,-205.25 439,-209.2 443.61,-214.47"/>
</g>
<!-- e316a716f&#45;1130&#45;4574&#45;b8d0&#45;1ea78ab294e5&#45;&gt;edfc59fcf&#45;8819&#45;4370&#45;b5dd&#45;3e5bb6d59f79 -->
<g id="eea67bb61&#45;c62b&#45;401f&#45;af51&#45;e5cf47c41cbb" class="edge">
<title>e316a716f&#45;1130&#45;4574&#45;b8d0&#45;1ea78ab294e5&#45;&gt;edfc59fcf&#45;8819&#45;4370&#45;b5dd&#45;3e5bb6d59f79</title>
<path fill="none" stroke="black" d="M379.68,-264C379.68,-264 346.19,-278.73 317.68,-283 293.95,-286.56 287.18,-287.89 263.68,-283 254.75,-281.14 245.52,-277.92 237,-274.34"/>
<polygon fill="black" stroke="black" points="238.3,-271.08 227.74,-270.19 235.44,-277.47 238.3,-271.08"/>
</g>
<!-- e5ea19676&#45;dc78&#45;4fd4&#45;b3b9&#45;dd09d5229bfa&#45;&gt;ec1d1471f&#45;8f1b&#45;4d4c&#45;8859&#45;2c34eca47aea -->
<g id="ef78bd017&#45;2890&#45;4b15&#45;bdfd&#45;79698f1649e2" class="edge">
<title>e5ea19676&#45;dc78&#45;4fd4&#45;b3b9&#45;dd09d5229bfa&#45;&gt;ec1d1471f&#45;8f1b&#45;4d4c&#45;8859&#45;2c34eca47aea</title>
<path fill="none" stroke="black" d="M201.68,-18C201.68,-18 229,-18 253.19,-18"/>
<polygon fill="black" stroke="black" points="253.28,-21.5 263.28,-18 253.28,-14.5 253.28,-21.5"/>
</g>
<!-- ed6fd1464&#45;a05b&#45;4a10&#45;8ae5&#45;cbc90213a4cf&#45;&gt;e7d65e29f&#45;eb26&#45;4cce&#45;9d99&#45;e997f951a07f -->
<g id="e19169876&#45;353a&#45;4fef&#45;a545&#45;5420d38c7c72" class="edge">
<title>ed6fd1464&#45;a05b&#45;4a10&#45;8ae5&#45;cbc90213a4cf&#45;&gt;e7d65e29f&#45;eb26&#45;4cce&#45;9d99&#45;e997f951a07f</title>
<path fill="none" stroke="black" d="M471.68,-187C471.68,-187 499,-187 523.19,-187"/>
<polygon fill="black" stroke="black" points="523.28,-190.5 533.28,-187 523.28,-183.5 523.28,-190.5"/>
</g>
<!-- e0bd4d043&#45;068f&#45;4b6c&#45;9ab5&#45;078e59bd81b3&#45;&gt;eda866947&#45;dbd5&#45;4923&#45;93aa&#45;83b57c009940 -->
<g id="e92c08b69&#45;1dbb&#45;4d48&#45;b458&#45;43bef42937e6" class="edge">
<title>e0bd4d043&#45;068f&#45;4b6c&#45;9ab5&#45;078e59bd81b3&#45;&gt;eda866947&#45;dbd5&#45;4923&#45;93aa&#45;83b57c009940</title>
<path fill="none" stroke="black" d="M381.68,-18C381.68,-18 409,-18 433.19,-18"/>
<polygon fill="black" stroke="black" points="433.28,-21.5 443.28,-18 433.28,-14.5 433.28,-21.5"/>
</g>
<!-- ea40ca83e&#45;074c&#45;4968&#45;87a6&#45;23b8f42aabf5&#45;&gt;ed6fd1464&#45;a05b&#45;4a10&#45;8ae5&#45;cbc90213a4cf -->
<g id="ee30f33b4&#45;033a&#45;44af&#45;ac44&#45;f4c7955122e5" class="edge">
<title>ea40ca83e&#45;074c&#45;4968&#45;87a6&#45;23b8f42aabf5&#45;&gt;ed6fd1464&#45;a05b&#45;4a10&#45;8ae5&#45;cbc90213a4cf</title>
<path fill="none" stroke="black" d="M291.68,-110C291.68,-110 382.28,-149.19 434.2,-171.65"/>
<polygon fill="black" stroke="black" points="432.85,-174.88 443.42,-175.64 435.63,-168.46 432.85,-174.88"/>
</g>
<!-- e12ab8dd2&#45;e32f&#45;4388&#45;b4ce&#45;752ceb486a64&#45;&gt;ed78ad127&#45;d19e&#45;42a0&#45;a4d3&#45;2907d61598f6 -->
<g id="e75055d55&#45;6077&#45;4c94&#45;9ea1&#45;6020119cec03" class="edge">
<title>e12ab8dd2&#45;e32f&#45;4388&#45;b4ce&#45;752ceb486a64&#45;&gt;ed78ad127&#45;d19e&#45;42a0&#45;a4d3&#45;2907d61598f6</title>
<path fill="none" stroke="black" d="M111.68,-191C111.68,-191 134.81,-278.19 173.68,-337 173.87,-337.29 174.06,-337.57 174.26,-337.85"/>
<polygon fill="black" stroke="black" points="171.62,-340.17 180.55,-345.88 177.13,-335.85 171.62,-340.17"/>
</g>
<!-- e12ab8dd2&#45;e32f&#45;4388&#45;b4ce&#45;752ceb486a64&#45;&gt;e5ea19676&#45;dc78&#45;4fd4&#45;b3b9&#45;dd09d5229bfa -->
<g id="e21af314f&#45;1834&#45;40eb&#45;9232&#45;c4e570a6f9ba" class="edge">
<title>e12ab8dd2&#45;e32f&#45;4388&#45;b4ce&#45;752ceb486a64&#45;&gt;e5ea19676&#45;dc78&#45;4fd4&#45;b3b9&#45;dd09d5229bfa</title>
<path fill="none" stroke="black" d="M111.68,-191C111.68,-191 138,-108.42 173.68,-50 174.83,-48.11 176.09,-46.22 177.4,-44.34"/>
<polygon fill="black" stroke="black" points="180.21,-46.43 183.4,-36.33 174.6,-42.23 180.21,-46.43"/>
</g>
<!-- e12ab8dd2&#45;e32f&#45;4388&#45;b4ce&#45;752ceb486a64&#45;&gt;ea40ca83e&#45;074c&#45;4968&#45;87a6&#45;23b8f42aabf5 -->
<g id="eb2a81a5f&#45;4287&#45;41a8&#45;bc49&#45;3a74de76589a" class="edge">
<title>e12ab8dd2&#45;e32f&#45;4388&#45;b4ce&#45;752ceb486a64&#45;&gt;ea40ca83e&#45;074c&#45;4968&#45;87a6&#45;23b8f42aabf5</title>
<path fill="none" stroke="black" d="M111.68,-191C111.68,-191 202.28,-149.77 254.2,-126.15"/>
<polygon fill="black" stroke="black" points="255.77,-129.28 263.42,-121.95 252.87,-122.91 255.77,-129.28"/>
</g>
<!-- e12ab8dd2&#45;e32f&#45;4388&#45;b4ce&#45;752ceb486a64&#45;&gt;edfc59fcf&#45;8819&#45;4370&#45;b5dd&#45;3e5bb6d59f79 -->
<g id="e0111292b&#45;c2fa&#45;4e5f&#45;8759&#45;03e29e7acdab" class="edge">
<title>e12ab8dd2&#45;e32f&#45;4388&#45;b4ce&#45;752ceb486a64&#45;&gt;edfc59fcf&#45;8819&#45;4370&#45;b5dd&#45;3e5bb6d59f79</title>
<path fill="none" stroke="black" d="M111.68,-191C111.68,-191 141.91,-213.33 166.93,-231.81"/>
<polygon fill="black" stroke="black" points="165.05,-234.77 175.17,-237.89 169.21,-229.14 165.05,-234.77"/>
</g>
<!-- e12ab8dd2&#45;e32f&#45;4388&#45;b4ce&#45;752ceb486a64&#45;&gt;ec5ed06ed&#45;6859&#45;4858&#45;9ef3&#45;043ea2b6ea88 -->
<g id="eca906171&#45;99c1&#45;4dfd&#45;b0eb&#45;28ccb197a3ec" class="edge">
<title>e12ab8dd2&#45;e32f&#45;4388&#45;b4ce&#45;752ceb486a64&#45;&gt;ec5ed06ed&#45;6859&#45;4858&#45;9ef3&#45;043ea2b6ea88</title>
<path fill="none" stroke="black" d="M111.68,-191C111.68,-191 142.69,-244.65 173.68,-283 173.98,-283.37 174.28,-283.73 174.58,-284.1"/>
<polygon fill="black" stroke="black" points="172.11,-286.59 181.34,-291.8 177.37,-281.97 172.11,-286.59"/>
</g>
<!-- e12ab8dd2&#45;e32f&#45;4388&#45;b4ce&#45;752ceb486a64&#45;&gt;ed8392951&#45;7ec9&#45;4079&#45;bb12&#45;d72ae599afde -->
<g id="e11e1fd73&#45;b438&#45;4794&#45;bf5f&#45;bf9e93eb4194" class="edge">
<title>e12ab8dd2&#45;e32f&#45;4388&#45;b4ce&#45;752ceb486a64&#45;&gt;ed8392951&#45;7ec9&#45;4079&#45;bb12&#45;d72ae599afde</title>
<path fill="none" stroke="black" d="M111.68,-191C111.68,-191 270.1,-202.23 343.34,-207.42"/>
<polygon fill="black" stroke="black" points="343.28,-210.93 353.5,-208.14 343.77,-203.95 343.28,-210.93"/>
</g>
<!-- e12ab8dd2&#45;e32f&#45;4388&#45;b4ce&#45;752ceb486a64&#45;&gt;e9dbf2aa1&#45;ca66&#45;4598&#45;b9a3&#45;2714938b1505 -->
<g id="e9327d88f&#45;c992&#45;4675&#45;9ac3&#45;274502b71d6a" class="edge">
<title>e12ab8dd2&#45;e32f&#45;4388&#45;b4ce&#45;752ceb486a64&#45;&gt;e9dbf2aa1&#45;ca66&#45;4598&#45;b9a3&#45;2714938b1505</title>
<path fill="none" stroke="black" d="M111.68,-191C111.68,-191 184.14,-106.26 263.68,-83 321.24,-66.17 391.62,-66.65 433.44,-69"/>
<polygon fill="black" stroke="black" points="433.48,-72.51 443.68,-69.64 433.92,-65.52 433.48,-72.51"/>
</g>
<!-- e12ab8dd2&#45;e32f&#45;4388&#45;b4ce&#45;752ceb486a64&#45;&gt;ebf270c7d&#45;9f38&#45;4432&#45;81fe&#45;a7a47945a9a0 -->
<g id="e7ad892e5&#45;c1cd&#45;4b8d&#45;929d&#45;087dfe4b6a34" class="edge">
<title>e12ab8dd2&#45;e32f&#45;4388&#45;b4ce&#45;752ceb486a64&#45;&gt;ebf270c7d&#45;9f38&#45;4432&#45;81fe&#45;a7a47945a9a0</title>
<path fill="none" stroke="black" d="M111.68,-191C111.68,-191 201.15,-177.43 253.23,-169.53"/>
<polygon fill="black" stroke="black" points="254.06,-172.94 263.42,-167.98 253.01,-166.02 254.06,-172.94"/>
</g>
<!-- ec1d1471f&#45;8f1b&#45;4d4c&#45;8859&#45;2c34eca47aea&#45;&gt;e0bd4d043&#45;068f&#45;4b6c&#45;9ab5&#45;078e59bd81b3 -->
<g id="e5cb1dd34&#45;70d6&#45;4e48&#45;b7f9&#45;121030e6e0ee" class="edge">
<title>ec1d1471f&#45;8f1b&#45;4d4c&#45;8859&#45;2c34eca47aea&#45;&gt;e0bd4d043&#45;068f&#45;4b6c&#45;9ab5&#45;078e59bd81b3</title>
<path fill="none" stroke="black" d="M291.68,-18C291.68,-18 319,-18 343.19,-18"/>
<polygon fill="black" stroke="black" points="343.28,-21.5 353.28,-18 343.28,-14.5 343.28,-21.5"/>
</g>
<!-- ee8e20b7d&#45;0c63&#45;4de8&#45;8d20&#45;e0fa3e0501c4&#45;&gt;e7f57190d&#45;3f55&#45;42b9&#45;8954&#45;6b04268c506e -->
<g id="ef5bd9e57&#45;e2b7&#45;4119&#45;a170&#45;d7b433750dee" class="edge">
<title>ee8e20b7d&#45;0c63&#45;4de8&#45;8d20&#45;e0fa3e0501c4&#45;&gt;e7f57190d&#45;3f55&#45;42b9&#45;8954&#45;6b04268c506e</title>
<path fill="none" stroke="black" d="M561.68,-22C561.68,-22 589.98,-38.08 614.48,-52"/>
<polygon fill="black" stroke="black" points="612.86,-55.1 623.28,-57 616.31,-49.02 612.86,-55.1"/>
</g>
<!-- edfc59fcf&#45;8819&#45;4370&#45;b5dd&#45;3e5bb6d59f79&#45;&gt;e00349e27&#45;6434&#45;4e23&#45;8ca0&#45;7323c694a785 -->
<g id="ecba6a8d2&#45;c0c7&#45;4234&#45;b06c&#45;0d90b768ade9" class="edge">
<title>edfc59fcf&#45;8819&#45;4370&#45;b5dd&#45;3e5bb6d59f79&#45;&gt;e00349e27&#45;6434&#45;4e23&#45;8ca0&#45;7323c694a785</title>
<path fill="none" stroke="black" d="M201.68,-256C201.68,-256 229,-256 253.19,-256"/>
<polygon fill="black" stroke="black" points="253.28,-259.5 263.28,-256 253.28,-252.5 253.28,-259.5"/>
</g>
<!-- ec5ed06ed&#45;6859&#45;4858&#45;9ef3&#45;043ea2b6ea88&#45;&gt;e0836048d&#45;1f62&#45;4c73&#45;9ce0&#45;e9510a4bd8e5 -->
<g id="e4632f3ca&#45;400a&#45;4fb8&#45;9414&#45;f134afe79325" class="edge">
<title>ec5ed06ed&#45;6859&#45;4858&#45;9ef3&#45;043ea2b6ea88&#45;&gt;e0836048d&#45;1f62&#45;4c73&#45;9ce0&#45;e9510a4bd8e5</title>
<path fill="none" stroke="black" d="M201.68,-310C201.68,-310 229.49,-322.01 253.84,-332.52"/>
<polygon fill="black" stroke="black" points="252.71,-335.85 263.28,-336.6 255.49,-329.42 252.71,-335.85"/>
</g>
<!-- ed8392951&#45;7ec9&#45;4079&#45;bb12&#45;d72ae599afde&#45;&gt;ed6fd1464&#45;a05b&#45;4a10&#45;8ae5&#45;cbc90213a4cf -->
<g id="e6c2bf830&#45;2a92&#45;42ec&#45;b43f&#45;17b7f688caef" class="edge">
<title>ed8392951&#45;7ec9&#45;4079&#45;bb12&#45;d72ae599afde&#45;&gt;ed6fd1464&#45;a05b&#45;4a10&#45;8ae5&#45;cbc90213a4cf</title>
<path fill="none" stroke="black" d="M381.68,-210C381.68,-210 409.24,-202.8 433.51,-196.45"/>
<polygon fill="black" stroke="black" points="434.49,-199.82 443.28,-193.9 432.72,-193.04 434.49,-199.82"/>
</g>
<!-- eda866947&#45;dbd5&#45;4923&#45;93aa&#45;83b57c009940&#45;&gt;ee8e20b7d&#45;0c63&#45;4de8&#45;8d20&#45;e0fa3e0501c4 -->
<g id="eac73e7f5&#45;13de&#45;4e1a&#45;b0dd&#45;3126d8e368ef" class="edge">
<title>eda866947&#45;dbd5&#45;4923&#45;93aa&#45;83b57c009940&#45;&gt;ee8e20b7d&#45;0c63&#45;4de8&#45;8d20&#45;e0fa3e0501c4</title>
<path fill="none" stroke="black" d="M471.68,-18C471.68,-18 499,-19.24 523.19,-20.34"/>
<polygon fill="black" stroke="black" points="523.13,-23.84 533.28,-20.8 523.45,-16.85 523.13,-23.84"/>
</g>
<!-- e9dbf2aa1&#45;ca66&#45;4598&#45;b9a3&#45;2714938b1505&#45;&gt;e7f57190d&#45;3f55&#45;42b9&#45;8954&#45;6b04268c506e -->
<g id="e5ffb3b90&#45;cc23&#45;439b&#45;80d3&#45;6f7c82131243" class="edge">
<title>e9dbf2aa1&#45;ca66&#45;4598&#45;b9a3&#45;2714938b1505&#45;&gt;e7f57190d&#45;3f55&#45;42b9&#45;8954&#45;6b04268c506e</title>
<path fill="none" stroke="black" d="M471.68,-72C471.68,-72 561.15,-72 613.23,-72"/>
<polygon fill="black" stroke="black" points="613.42,-75.5 623.42,-72 613.42,-68.5 613.42,-75.5"/>
</g>
<!-- e9dbf2aa1&#45;ca66&#45;4598&#45;b9a3&#45;2714938b1505&#45;&gt;e9dbf2aa1&#45;ca66&#45;4598&#45;b9a3&#45;2714938b1505 -->
<g id="e504dc316&#45;749a&#45;4133&#45;b864&#45;9b5b28e17172" class="edge">
<title>e9dbf2aa1&#45;ca66&#45;4598&#45;b9a3&#45;2714938b1505&#45;&gt;e9dbf2aa1&#45;ca66&#45;4598&#45;b9a3&#45;2714938b1505</title>
<path fill="none" stroke="black" d="M470.68,-72C448.18,-84 448.18,-108 470.68,-108 478.82,-108 484.02,-104.86 486.27,-100.28"/>
<polygon fill="black" stroke="black" points="489.77,-100.37 486.96,-90.15 482.79,-99.89 489.77,-100.37"/>
</g>
<!-- ebf270c7d&#45;9f38&#45;4432&#45;81fe&#45;a7a47945a9a0&#45;&gt;ed6fd1464&#45;a05b&#45;4a10&#45;8ae5&#45;cbc90213a4cf -->
<g id="ec87591cd&#45;2f34&#45;4ee2&#45;ae32&#45;d58fdddc1eff" class="edge">
<title>ebf270c7d&#45;9f38&#45;4432&#45;81fe&#45;a7a47945a9a0&#45;&gt;ed6fd1464&#45;a05b&#45;4a10&#45;8ae5&#45;cbc90213a4cf</title>
<path fill="none" stroke="black" d="M291.68,-164C291.68,-164 381.15,-175.56 433.23,-182.29"/>
<polygon fill="black" stroke="black" points="433.05,-185.8 443.42,-183.61 433.95,-178.85 433.05,-185.8"/>
</g>
<!-- eee2e20db&#45;c982&#45;4edb&#45;b9a5&#45;f8538ffbacf9 -->
<g id="eee2e20db&#45;c982&#45;4edb&#45;b9a5&#45;f8538ffbacf9" class="node">
<title>eee2e20db&#45;c982&#45;4edb&#45;b9a5&#45;f8538ffbacf9</title>
<ellipse fill="#048ab5" stroke="black" cx="23.84" cy="-191" rx="23.68" ry="23.68"/>
<text text-anchor="middle" x="23.84" y="-188.6" font-family="Arial" font-size="8.00" fill="white">@Start</text>
</g>
<!-- e23f3ba8c&#45;d1fd&#45;4122&#45;bb13&#45;7ca37c4ed494 -->
<g id="e23f3ba8c&#45;d1fd&#45;4122&#45;bb13&#45;7ca37c4ed494" class="node">
<title>e23f3ba8c&#45;d1fd&#45;4122&#45;bb13&#45;7ca37c4ed494</title>
<ellipse fill="#048ab5" stroke="black" cx="736.15" cy="-187" rx="22.43" ry="22.43"/>
<text text-anchor="middle" x="736.15" y="-184.6" font-family="Arial" font-size="8.00" fill="white">@End</text>
</g>
<!-- ed78ad127&#45;d19e&#45;42a0&#45;a4d3&#45;2907d61598f6 -->
<g id="ed78ad127&#45;d19e&#45;42a0&#45;a4d3&#45;2907d61598f6" class="node">
<title>ed78ad127&#45;d19e&#45;42a0&#45;a4d3&#45;2907d61598f6</title>
<path fill="#70b356" stroke="black" d="M215.68,-382C215.68,-382 185.68,-382 185.68,-382 179.68,-382 173.68,-376 173.68,-370 173.68,-370 173.68,-358 173.68,-358 173.68,-352 179.68,-346 185.68,-346 185.68,-346 215.68,-346 215.68,-346 221.68,-346 227.68,-352 227.68,-358 227.68,-358 227.68,-370 227.68,-370 227.68,-376 221.68,-382 215.68,-382"/>
<text text-anchor="middle" x="200.68" y="-361.3" font-family="Arial" font-size="9.00">C</text>
</g>
<!-- e7eeb11a9&#45;a0a8&#45;48ab&#45;9df5&#45;4628d614e371 -->
<g id="e7eeb11a9&#45;a0a8&#45;48ab&#45;9df5&#45;4628d614e371" class="node">
<title>e7eeb11a9&#45;a0a8&#45;48ab&#45;9df5&#45;4628d614e371</title>
<path fill="#70b356" stroke="black" d="M665.68,-301C665.68,-301 635.68,-301 635.68,-301 629.68,-301 623.68,-295 623.68,-289 623.68,-289 623.68,-277 623.68,-277 623.68,-271 629.68,-265 635.68,-265 635.68,-265 665.68,-265 665.68,-265 671.68,-265 677.68,-271 677.68,-277 677.68,-277 677.68,-289 677.68,-289 677.68,-295 671.68,-301 665.68,-301"/>
<text text-anchor="middle" x="650.68" y="-280.3" font-family="Arial" font-size="9.00">G</text>
</g>
<!-- e7d65e29f&#45;eb26&#45;4cce&#45;9d99&#45;e997f951a07f -->
<g id="e7d65e29f&#45;eb26&#45;4cce&#45;9d99&#45;e997f951a07f" class="node">
<title>e7d65e29f&#45;eb26&#45;4cce&#45;9d99&#45;e997f951a07f</title>
<path fill="#70b356" stroke="black" d="M575.68,-205C575.68,-205 545.68,-205 545.68,-205 539.68,-205 533.68,-199 533.68,-193 533.68,-193 533.68,-181 533.68,-181 533.68,-175 539.68,-169 545.68,-169 545.68,-169 575.68,-169 575.68,-169 581.68,-169 587.68,-175 587.68,-181 587.68,-181 587.68,-193 587.68,-193 587.68,-199 581.68,-205 575.68,-205"/>
<text text-anchor="middle" x="560.68" y="-184.3" font-family="Arial" font-size="9.00">H</text>
</g>
<!-- e00349e27&#45;6434&#45;4e23&#45;8ca0&#45;7323c694a785 -->
<g id="e00349e27&#45;6434&#45;4e23&#45;8ca0&#45;7323c694a785" class="node">
<title>e00349e27&#45;6434&#45;4e23&#45;8ca0&#45;7323c694a785</title>
<path fill="#70b356" stroke="black" d="M305.68,-274C305.68,-274 275.68,-274 275.68,-274 269.68,-274 263.68,-268 263.68,-262 263.68,-262 263.68,-250 263.68,-250 263.68,-244 269.68,-238 275.68,-238 275.68,-238 305.68,-238 305.68,-238 311.68,-238 317.68,-244 317.68,-250 317.68,-250 317.68,-262 317.68,-262 317.68,-268 311.68,-274 305.68,-274"/>
<text text-anchor="middle" x="290.68" y="-253.3" font-family="Arial" font-size="9.00">F</text>
</g>
<!-- e7f57190d&#45;3f55&#45;42b9&#45;8954&#45;6b04268c506e -->
<g id="e7f57190d&#45;3f55&#45;42b9&#45;8954&#45;6b04268c506e" class="node">
<title>e7f57190d&#45;3f55&#45;42b9&#45;8954&#45;6b04268c506e</title>
<path fill="#70b356" stroke="black" d="M665.68,-90C665.68,-90 635.68,-90 635.68,-90 629.68,-90 623.68,-84 623.68,-78 623.68,-78 623.68,-66 623.68,-66 623.68,-60 629.68,-54 635.68,-54 635.68,-54 665.68,-54 665.68,-54 671.68,-54 677.68,-60 677.68,-66 677.68,-66 677.68,-78 677.68,-78 677.68,-84 671.68,-90 665.68,-90"/>
<text text-anchor="middle" x="650.68" y="-69.3" font-family="Arial" font-size="9.00">A</text>
</g>
<!-- e0836048d&#45;1f62&#45;4c73&#45;9ce0&#45;e9510a4bd8e5 -->
<g id="e0836048d&#45;1f62&#45;4c73&#45;9ce0&#45;e9510a4bd8e5" class="node">
<title>e0836048d&#45;1f62&#45;4c73&#45;9ce0&#45;e9510a4bd8e5</title>
<path fill="#70b356" stroke="black" d="M305.68,-366C305.68,-366 275.68,-366 275.68,-366 269.68,-366 263.68,-360 263.68,-354 263.68,-354 263.68,-342 263.68,-342 263.68,-336 269.68,-330 275.68,-330 275.68,-330 305.68,-330 305.68,-330 311.68,-330 317.68,-336 317.68,-342 317.68,-342 317.68,-354 317.68,-354 317.68,-360 311.68,-366 305.68,-366"/>
<text text-anchor="middle" x="290.68" y="-345.3" font-family="Arial" font-size="9.00">D</text>
</g>
<!-- e316a716f&#45;1130&#45;4574&#45;b8d0&#45;1ea78ab294e5 -->
<g id="e316a716f&#45;1130&#45;4574&#45;b8d0&#45;1ea78ab294e5" class="node">
<title>e316a716f&#45;1130&#45;4574&#45;b8d0&#45;1ea78ab294e5</title>
<path fill="#70b356" stroke="black" d="M395.68,-282C395.68,-282 365.68,-282 365.68,-282 359.68,-282 353.68,-276 353.68,-270 353.68,-270 353.68,-258 353.68,-258 353.68,-252 359.68,-246 365.68,-246 365.68,-246 395.68,-246 395.68,-246 401.68,-246 407.68,-252 407.68,-258 407.68,-258 407.68,-270 407.68,-270 407.68,-276 401.68,-282 395.68,-282"/>
<text text-anchor="middle" x="380.68" y="-261.3" font-family="Arial" font-size="9.00">T</text>
</g>
<!-- e5ea19676&#45;dc78&#45;4fd4&#45;b3b9&#45;dd09d5229bfa -->
<g id="e5ea19676&#45;dc78&#45;4fd4&#45;b3b9&#45;dd09d5229bfa" class="node">
<title>e5ea19676&#45;dc78&#45;4fd4&#45;b3b9&#45;dd09d5229bfa</title>
<path fill="#70b356" stroke="black" d="M215.68,-36C215.68,-36 185.68,-36 185.68,-36 179.68,-36 173.68,-30 173.68,-24 173.68,-24 173.68,-12 173.68,-12 173.68,-6 179.68,0 185.68,0 185.68,0 215.68,0 215.68,0 221.68,0 227.68,-6 227.68,-12 227.68,-12 227.68,-24 227.68,-24 227.68,-30 221.68,-36 215.68,-36"/>
<text text-anchor="middle" x="200.68" y="-15.3" font-family="Arial" font-size="9.00">P</text>
</g>
<!-- ed6fd1464&#45;a05b&#45;4a10&#45;8ae5&#45;cbc90213a4cf -->
<g id="ed6fd1464&#45;a05b&#45;4a10&#45;8ae5&#45;cbc90213a4cf" class="node">
<title>ed6fd1464&#45;a05b&#45;4a10&#45;8ae5&#45;cbc90213a4cf</title>
<path fill="#70b356" stroke="black" d="M485.68,-205C485.68,-205 455.68,-205 455.68,-205 449.68,-205 443.68,-199 443.68,-193 443.68,-193 443.68,-181 443.68,-181 443.68,-175 449.68,-169 455.68,-169 455.68,-169 485.68,-169 485.68,-169 491.68,-169 497.68,-175 497.68,-181 497.68,-181 497.68,-193 497.68,-193 497.68,-199 491.68,-205 485.68,-205"/>
<text text-anchor="middle" x="470.68" y="-184.3" font-family="Arial" font-size="9.00">D</text>
</g>
<!-- e0bd4d043&#45;068f&#45;4b6c&#45;9ab5&#45;078e59bd81b3 -->
<g id="e0bd4d043&#45;068f&#45;4b6c&#45;9ab5&#45;078e59bd81b3" class="node">
<title>e0bd4d043&#45;068f&#45;4b6c&#45;9ab5&#45;078e59bd81b3</title>
<path fill="#70b356" stroke="black" d="M395.68,-36C395.68,-36 365.68,-36 365.68,-36 359.68,-36 353.68,-30 353.68,-24 353.68,-24 353.68,-12 353.68,-12 353.68,-6 359.68,0 365.68,0 365.68,0 395.68,0 395.68,0 401.68,0 407.68,-6 407.68,-12 407.68,-12 407.68,-24 407.68,-24 407.68,-30 401.68,-36 395.68,-36"/>
<text text-anchor="middle" x="380.68" y="-15.3" font-family="Arial" font-size="9.00">F</text>
</g>
<!-- ea40ca83e&#45;074c&#45;4968&#45;87a6&#45;23b8f42aabf5 -->
<g id="ea40ca83e&#45;074c&#45;4968&#45;87a6&#45;23b8f42aabf5" class="node">
<title>ea40ca83e&#45;074c&#45;4968&#45;87a6&#45;23b8f42aabf5</title>
<path fill="#70b356" stroke="black" d="M305.68,-128C305.68,-128 275.68,-128 275.68,-128 269.68,-128 263.68,-122 263.68,-116 263.68,-116 263.68,-104 263.68,-104 263.68,-98 269.68,-92 275.68,-92 275.68,-92 305.68,-92 305.68,-92 311.68,-92 317.68,-98 317.68,-104 317.68,-104 317.68,-116 317.68,-116 317.68,-122 311.68,-128 305.68,-128"/>
<text text-anchor="middle" x="290.68" y="-107.3" font-family="Arial" font-size="9.00">Y</text>
</g>
<!-- e12ab8dd2&#45;e32f&#45;4388&#45;b4ce&#45;752ceb486a64 -->
<g id="e12ab8dd2&#45;e32f&#45;4388&#45;b4ce&#45;752ceb486a64" class="node">
<title>e12ab8dd2&#45;e32f&#45;4388&#45;b4ce&#45;752ceb486a64</title>
<path fill="#70b356" stroke="black" d="M125.68,-209C125.68,-209 95.68,-209 95.68,-209 89.68,-209 83.68,-203 83.68,-197 83.68,-197 83.68,-185 83.68,-185 83.68,-179 89.68,-173 95.68,-173 95.68,-173 125.68,-173 125.68,-173 131.68,-173 137.68,-179 137.68,-185 137.68,-185 137.68,-197 137.68,-197 137.68,-203 131.68,-209 125.68,-209"/>
<text text-anchor="middle" x="110.68" y="-188.3" font-family="Arial" font-size="9.00">A</text>
</g>
<!-- ec1d1471f&#45;8f1b&#45;4d4c&#45;8859&#45;2c34eca47aea -->
<g id="ec1d1471f&#45;8f1b&#45;4d4c&#45;8859&#45;2c34eca47aea" class="node">
<title>ec1d1471f&#45;8f1b&#45;4d4c&#45;8859&#45;2c34eca47aea</title>
<path fill="#70b356" stroke="black" d="M305.68,-36C305.68,-36 275.68,-36 275.68,-36 269.68,-36 263.68,-30 263.68,-24 263.68,-24 263.68,-12 263.68,-12 263.68,-6 269.68,0 275.68,0 275.68,0 305.68,0 305.68,0 311.68,0 317.68,-6 317.68,-12 317.68,-12 317.68,-24 317.68,-24 317.68,-30 311.68,-36 305.68,-36"/>
<text text-anchor="middle" x="290.68" y="-15.3" font-family="Arial" font-size="9.00">E</text>
</g>
<!-- ee8e20b7d&#45;0c63&#45;4de8&#45;8d20&#45;e0fa3e0501c4 -->
<g id="ee8e20b7d&#45;0c63&#45;4de8&#45;8d20&#45;e0fa3e0501c4" class="node">
<title>ee8e20b7d&#45;0c63&#45;4de8&#45;8d20&#45;e0fa3e0501c4</title>
<path fill="#70b356" stroke="black" d="M575.68,-40C575.68,-40 545.68,-40 545.68,-40 539.68,-40 533.68,-34 533.68,-28 533.68,-28 533.68,-16 533.68,-16 533.68,-10 539.68,-4 545.68,-4 545.68,-4 575.68,-4 575.68,-4 581.68,-4 587.68,-10 587.68,-16 587.68,-16 587.68,-28 587.68,-28 587.68,-34 581.68,-40 575.68,-40"/>
<text text-anchor="middle" x="560.68" y="-19.3" font-family="Arial" font-size="9.00">P</text>
</g>
<!-- edfc59fcf&#45;8819&#45;4370&#45;b5dd&#45;3e5bb6d59f79 -->
<g id="edfc59fcf&#45;8819&#45;4370&#45;b5dd&#45;3e5bb6d59f79" class="node">
<title>edfc59fcf&#45;8819&#45;4370&#45;b5dd&#45;3e5bb6d59f79</title>
<path fill="#70b356" stroke="black" d="M215.68,-274C215.68,-274 185.68,-274 185.68,-274 179.68,-274 173.68,-268 173.68,-262 173.68,-262 173.68,-250 173.68,-250 173.68,-244 179.68,-238 185.68,-238 185.68,-238 215.68,-238 215.68,-238 221.68,-238 227.68,-244 227.68,-250 227.68,-250 227.68,-262 227.68,-262 227.68,-268 221.68,-274 215.68,-274"/>
<text text-anchor="middle" x="200.68" y="-253.3" font-family="Arial" font-size="9.00">E</text>
</g>
<!-- ec5ed06ed&#45;6859&#45;4858&#45;9ef3&#45;043ea2b6ea88 -->
<g id="ec5ed06ed&#45;6859&#45;4858&#45;9ef3&#45;043ea2b6ea88" class="node">
<title>ec5ed06ed&#45;6859&#45;4858&#45;9ef3&#45;043ea2b6ea88</title>
<path fill="#70b356" stroke="black" d="M215.68,-328C215.68,-328 185.68,-328 185.68,-328 179.68,-328 173.68,-322 173.68,-316 173.68,-316 173.68,-304 173.68,-304 173.68,-298 179.68,-292 185.68,-292 185.68,-292 215.68,-292 215.68,-292 221.68,-292 227.68,-298 227.68,-304 227.68,-304 227.68,-316 227.68,-316 227.68,-322 221.68,-328 215.68,-328"/>
<text text-anchor="middle" x="200.68" y="-307.3" font-family="Arial" font-size="9.00">B</text>
</g>
<!-- ed8392951&#45;7ec9&#45;4079&#45;bb12&#45;d72ae599afde -->
<g id="ed8392951&#45;7ec9&#45;4079&#45;bb12&#45;d72ae599afde" class="node">
<title>ed8392951&#45;7ec9&#45;4079&#45;bb12&#45;d72ae599afde</title>
<path fill="#70b356" stroke="black" d="M395.68,-228C395.68,-228 365.68,-228 365.68,-228 359.68,-228 353.68,-222 353.68,-216 353.68,-216 353.68,-204 353.68,-204 353.68,-198 359.68,-192 365.68,-192 365.68,-192 395.68,-192 395.68,-192 401.68,-192 407.68,-198 407.68,-204 407.68,-204 407.68,-216 407.68,-216 407.68,-222 401.68,-228 395.68,-228"/>
<text text-anchor="middle" x="380.68" y="-207.3" font-family="Arial" font-size="9.00">X</text>
</g>
<!-- eda866947&#45;dbd5&#45;4923&#45;93aa&#45;83b57c009940 -->
<g id="eda866947&#45;dbd5&#45;4923&#45;93aa&#45;83b57c009940" class="node">
<title>eda866947&#45;dbd5&#45;4923&#45;93aa&#45;83b57c009940</title>
<path fill="#70b356" stroke="black" d="M485.68,-36C485.68,-36 455.68,-36 455.68,-36 449.68,-36 443.68,-30 443.68,-24 443.68,-24 443.68,-12 443.68,-12 443.68,-6 449.68,0 455.68,0 455.68,0 485.68,0 485.68,0 491.68,0 497.68,-6 497.68,-12 497.68,-12 497.68,-24 497.68,-24 497.68,-30 491.68,-36 485.68,-36"/>
<text text-anchor="middle" x="470.68" y="-15.3" font-family="Arial" font-size="9.00">T</text>
</g>
<!-- e9dbf2aa1&#45;ca66&#45;4598&#45;b9a3&#45;2714938b1505 -->
<g id="e9dbf2aa1&#45;ca66&#45;4598&#45;b9a3&#45;2714938b1505" class="node">
<title>e9dbf2aa1&#45;ca66&#45;4598&#45;b9a3&#45;2714938b1505</title>
<path fill="#70b356" stroke="black" d="M485.68,-90C485.68,-90 455.68,-90 455.68,-90 449.68,-90 443.68,-84 443.68,-78 443.68,-78 443.68,-66 443.68,-66 443.68,-60 449.68,-54 455.68,-54 455.68,-54 485.68,-54 485.68,-54 491.68,-54 497.68,-60 497.68,-66 497.68,-66 497.68,-78 497.68,-78 497.68,-84 491.68,-90 485.68,-90"/>
<text text-anchor="middle" x="470.68" y="-69.3" font-family="Arial" font-size="9.00">W</text>
</g>
<!-- ebf270c7d&#45;9f38&#45;4432&#45;81fe&#45;a7a47945a9a0 -->
<g id="ebf270c7d&#45;9f38&#45;4432&#45;81fe&#45;a7a47945a9a0" class="node">
<title>ebf270c7d&#45;9f38&#45;4432&#45;81fe&#45;a7a47945a9a0</title>
<path fill="#70b356" stroke="black" d="M305.68,-182C305.68,-182 275.68,-182 275.68,-182 269.68,-182 263.68,-176 263.68,-170 263.68,-170 263.68,-158 263.68,-158 263.68,-152 269.68,-146 275.68,-146 275.68,-146 305.68,-146 305.68,-146 311.68,-146 317.68,-152 317.68,-158 317.68,-158 317.68,-170 317.68,-170 317.68,-176 311.68,-182 305.68,-182"/>
<text text-anchor="middle" x="290.68" y="-161.3" font-family="Arial" font-size="9.00">Z</text>
</g>
</g>
</svg>
